<svg width="98" height="35" viewBox="0 0 98 35" fill="none" xmlns="http://www.w3.org/2000/svg">
<path d="M27.8901 32.2215C25.0549 33.9877 21.6264 35 17.8681 35C7.67033 35 0 27.8062 0 17.4892C0 7.19385 7.67033 0 17.8462 0C28.022 0 35.6923 7.19385 35.6923 17.4892C35.6923 22.1846 34.0879 26.2554 31.3846 29.2277L27.8901 32.2215ZM24.0659 28.3877L27.5824 25.4154C29.1868 23.3046 30.1319 20.5692 30.1319 17.5108C30.1319 10.3169 25.0989 5.10462 17.8462 5.10462C10.6154 5.10462 5.56044 10.3385 5.56044 17.5108C5.56044 24.7046 10.5934 29.9169 17.8462 29.9169C20.1978 29.9169 22.3077 29.3785 24.0659 28.3877Z" fill="#232841"/>
<path d="M55.7578 0.710205L51.538 3.31636L53.4061 6.95636L59.582 21.3225H46.0215L43.9336 25.9317H61.4061L65.0765 34.2671H70.6589L55.7578 0.710205Z" fill="#232841"/>
<path d="M98.0008 34.2671H92.6821L75.847 9.19636H75.7591V34.2671H70.6602V0.710205H76.0008L92.814 25.781H92.9239V0.710205H98.0008V34.2671Z" fill="#232841"/>
<path d="M22.8805 21.0857H16.375L29.5179 34.2672H35.9794L22.8805 21.0857Z" fill="#00ADEE"/>
<path d="M55.7602 0.710205H50.3537L35.7383 34.2671H41.3207L55.7602 0.710205Z" fill="#00ADEE"/>
</svg>
